<?xml version="1.0" standalone="no"?>
<!DOCTYPE svg PUBLIC "-//W3C//DTD SVG 20010904//EN"
 "http://www.w3.org/TR/2001/REC-SVG-20010904/DTD/svg10.dtd">
<svg version="1.0" xmlns="http://www.w3.org/2000/svg"
 width="1000.000000pt" height="1000.000000pt" viewBox="0 0 1000.000000 1000.000000"
 preserveAspectRatio="xMidYMid meet">
<metadata>
Created by potrace 1.16, written by Peter Selinger 2001-2019
</metadata>
<g transform="translate(0.000000,1000.000000) scale(0.100000,-0.100000)"
fill="#000000" stroke="none">
<path d="M1030 9685 c-366 -79 -652 -367 -724 -730 -15 -73 -16 -435 -14
-3985 l3 -3905 23 -73 c101 -328 336 -561 659 -654 l78 -23 3925 0 3925 0 78
23 c326 94 565 333 659 659 l23 78 0 3930 0 3930 -23 78 c-93 323 -326 558
-654 659 l-73 23 -3910 2 c-3315 1 -3920 -1 -3975 -12z m6170 -978 c0 -13 -9
-73 -20 -134 -11 -61 -34 -191 -51 -290 -34 -198 -60 -348 -114 -658 -21 -115
-39 -226 -41 -245 -6 -46 27 -104 84 -147 l44 -33 839 0 c792 0 839 -1 839
-17 0 -19 -30 -198 -79 -478 -50 -289 -61 -348 -72 -397 l-11 -47 -861 -3
c-706 -2 -867 -5 -887 -17 -35 -19 -110 -93 -110 -108 0 -7 -4 -21 -9 -31 -6
-9 -22 -87 -36 -172 -15 -85 -38 -216 -51 -290 -13 -74 -37 -214 -54 -310 -32
-187 -69 -397 -120 -680 -17 -96 -44 -251 -60 -345 -17 -93 -44 -246 -60 -340
-17 -93 -41 -237 -55 -320 -13 -82 -27 -156 -30 -164 -3 -8 -17 -83 -31 -166
-13 -82 -31 -185 -39 -227 -13 -69 -26 -155 -56 -373 -18 -124 18 -254 94
-341 35 -40 127 -96 190 -116 43 -13 382 -37 535 -38 109 0 122 -2 122 -17 -1
-52 -139 -857 -155 -900 -3 -10 -111 -13 -492 -13 -505 1 -846 11 -999 30
-226 28 -445 107 -557 200 -98 80 -189 222 -216 335 -40 169 -52 374 -31 540
5 44 17 148 26 230 8 83 22 175 29 205 7 30 21 105 30 165 9 61 22 139 30 175
8 36 24 121 35 190 23 134 61 350 110 625 30 167 51 286 109 615 16 91 38 224
50 295 12 72 29 162 37 200 8 39 26 138 40 220 27 158 60 344 94 535 31 175
36 260 17 295 -22 41 -47 68 -82 91 -28 18 -54 19 -625 19 -327 0 -1057 1
-1622 3 l-1028 2 0 25 c0 14 4 33 9 43 15 28 38 84 54 132 8 25 21 59 27 75 7
17 16 39 20 50 43 112 62 161 81 197 5 10 9 23 9 29 0 6 7 27 16 47 8 21 21
51 28 67 8 17 21 50 31 75 10 25 26 63 36 85 9 22 24 57 33 78 l15 37 1546 0
c1503 0 1547 1 1583 19 20 11 52 35 71 54 37 39 43 63 87 307 57 323 85 482
108 615 13 77 40 226 60 332 20 105 36 194 36 197 0 3 326 6 725 6 l725 0 0
-23z m-3065 -2732 c153 -27 297 -120 390 -250 153 -213 218 -564 170 -915 -25
-186 -405 -2316 -430 -2416 -78 -296 -240 -599 -423 -787 -123 -127 -287 -230
-442 -279 l-75 -23 -790 0 -790 0 -73 24 c-225 74 -387 274 -463 572 -27 106
-38 417 -20 555 23 167 410 2339 435 2434 77 298 236 594 419 782 167 171 361
279 552 307 33 5 375 9 760 9 565 1 715 -1 780 -13z"/>
<path d="M2898 5386 c-103 -37 -222 -147 -297 -273 -47 -80 -102 -211 -125
-298 -16 -65 -182 -976 -271 -1495 -31 -179 -75 -426 -97 -550 -52 -290 -61
-468 -29 -603 34 -142 88 -224 179 -269 45 -22 58 -23 332 -26 317 -4 388 3
466 47 145 84 265 258 338 488 23 74 121 593 235 1248 22 127 75 426 117 665
87 489 99 630 70 768 -29 137 -93 238 -180 285 -39 21 -53 22 -371 24 -255 2
-338 0 -367 -11z"/>
</g>
</svg>
